<?xml version="1.0" encoding="UTF-8"?>
<svg width="48px" height="45px" viewBox="0 0 48 45" version="1.1" xmlns="http://www.w3.org/2000/svg" xmlns:xlink="http://www.w3.org/1999/xlink">
    <!-- Generator: Sketch 60.1 (88133) - https://sketch.com -->
    <title>offer icon</title>
    <desc>Created with Sketch.</desc>
    <g id="Page-1" stroke="none" stroke-width="1" fill="none" fill-rule="evenodd">
        <g id="Skilled-employment_en" transform="translate(-204.000000, -162.000000)" fill-rule="nonzero">
            <g id="Group-4" transform="translate(30.000000, 92.000000)">
                <g id="Offer" transform="translate(135.000000, 53.000000)">
                    <g id="offer-icon" transform="translate(39.000000, 17.000000)">
                        <path d="M45.6663531,0.5 L14.4607286,0.5 C13.6323014,0.5 12.9607286,1.17157288 12.9607286,2 L12.9607286,33.2056245 C12.9607286,34.0340516 13.6323014,34.7056245 14.4607286,34.7056245 L45.6663531,34.7056245 C46.4947802,34.7056245 47.1663531,34.0340516 47.1663531,33.2056245 L47.1663531,2 C47.1663531,1.17157288 46.4947802,0.5 45.6663531,0.5 Z M44.166,3.5 L44.166,31.705 L15.96,31.705 L15.96,3.5 L44.166,3.5 Z" id="Rectangle-Copy-2" fill="#000000"></path>
                        <path d="M39.5476032,6.00687491 L8.34197865,6.00687491 C7.51355153,6.00687491 6.84197865,6.67844779 6.84197865,7.50687491 L6.84197865,38.7124994 C6.84197865,39.4736806 7.41210047,40.1141853 8.16815342,40.2023936 L37.8427965,43.6645198 C38.4959249,43.74072 39.1225386,43.3826533 39.3884751,42.7812707 L40.9194565,39.3191446 C41.0039553,39.128061 41.0476032,38.9214323 41.0476032,38.7124994 L41.0476032,7.50687491 C41.0476032,6.67844779 40.3760303,6.00687491 39.5476032,6.00687491 Z M38.047,9.006 L38.047,38.394 L37.091,40.556 L9.841,37.377 L9.841,9.006 L38.047,9.006 Z" id="Rectangle" fill="#000000"></path>
                        <polygon id="Path" fill="#FFFFFF" points="38.047 9.006 38.047 38.394 37.091 40.556 9.841 37.377 9.841 9.006"></polygon>
                        <path d="M5.89903009,33.2496652 L15.2197104,33.2498397 C19.9845113,33.2609557 26.036317,33.2851492 33.3754566,33.3224189 C34.225672,33.3267365 34.9023319,34.0361314 34.8665072,34.8856027 C34.7182754,38.4004622 35.2446765,39.7353139 35.8967833,39.7353139 C36.9406972,39.7353139 37.4883961,39.5602203 37.717145,39.3269236 L37.760772,39.1822773 C37.8543415,38.848662 37.9249894,38.5112344 37.9765385,38.1810917 L38.07366,37.4152816 L38.0947655,37.3092173 C38.0985752,37.2944541 38.103285,37.2791138 38.1107648,37.2578908 L38.2038427,37.0175138 L38.2611414,36.9123488 L38.4305041,36.6820985 L39.0888915,36.2541279 L40.2675757,36.3653508 L40.6144044,36.6262284 L40.9221605,37.2106853 C41.0869253,37.5295248 41.0772333,37.5371969 41.0442804,37.5632824 L41.049201,37.6609385 L41.0476032,38.0288567 C41.0476032,38.9236126 40.9085843,39.7017295 40.5671204,40.4067488 L40.444587,40.6419047 C39.595242,43.0448856 37.9802709,44.6177228 35.504456,44.5065374 L35.342,44.495 L9.236,44.495 L9.03946261,44.5150213 C3.65665594,44.9935339 0.704197918,41.7432171 0.510216629,35.4915263 L0.502555929,35.1597225 L0.5,34.8223996 C0.5,33.5757951 -0.370650932,33.4902799 0.894253876,33.3869338 L2.10224929,33.3020973 L2.72875498,33.2808534 L5.27310109,33.2527084 C5.4727138,33.2516016 5.68135576,33.2505873 5.89903009,33.2496652 Z M3.50259393,34.9342843 L3.5,34.8223996 C3.5,35.0922156 3.50465682,35.3532402 3.51402518,35.6055949 L3.53161819,35.9776394 L3.546,36.199 L3.5562091,36.1984232 C4.19644509,36.1144048 3.61170774,35.963111 3.51346733,35.073368 L3.50259393,34.9342843 Z" id="Path-2" fill="#000000"></path>
                        <path d="M31.849,36.314 L14.3471562,36.2479268 L5.91579494,36.2496209 L3.551,36.267 L3.57134866,36.5115208 C3.91314283,40.2279494 5.49356461,41.7369857 8.54083126,41.5445842 L8.77213016,41.5269718 L8.99262839,41.5048593 L9.15881946,41.4956243 L33.177,41.495 C32.3940463,40.5090708 31.9784374,38.9734116 31.8723364,36.9655504 L31.8560554,36.5835618 L31.849,36.314 Z" id="Path" fill="#FFFFFF"></path>
                        <path d="M32.9546106,17.1358232 C33.7829944,17.1273531 34.4613985,17.7920245 34.4699487,18.6204084 C34.4778404,19.4000637 33.8895347,20.0468651 33.1296657,20.1273232 L32.9852834,20.1356664 L14.3230962,20.3264838 C13.4947124,20.3349539 12.8163083,19.6702825 12.8077582,18.8418987 C12.7998664,18.0622433 13.3881721,17.4154419 14.1480411,17.3349839 L14.2924234,17.3266406 L32.9546106,17.1358232 Z" id="Path" fill="#000000"></path>
                        <path d="M32.9546106,22.0308231 C33.7829944,22.022353 34.4613985,22.6870245 34.4699487,23.5154083 C34.4778404,24.2950636 33.8895347,24.941865 33.1296657,25.0223231 L32.9852834,25.0306663 L14.3230962,25.2214837 C13.4947124,25.2299538 12.8163083,24.5652824 12.8077582,23.7368986 C12.7998664,22.9572432 13.3881721,22.3104418 14.1480411,22.2299838 L14.2924234,22.2216406 L32.9546106,22.0308231 Z" id="Path-Copy" fill="#000000"></path>
                    </g>
                </g>
            </g>
        </g>
    </g>
</svg>