<?xml version="1.0" encoding="UTF-8"?>
<svg width="48px" height="48px" viewBox="0 0 48 48" version="1.1" xmlns="http://www.w3.org/2000/svg" xmlns:xlink="http://www.w3.org/1999/xlink">
    <!-- Generator: Sketch 60.1 (88133) - https://sketch.com -->
    <title>working icon</title>
    <desc>Created with Sketch.</desc>
    <g id="Page-1" stroke="none" stroke-width="1" fill="none" fill-rule="evenodd">
        <g id="Skilled-employment_en" transform="translate(-69.000000, -161.000000)" fill="#000000">
            <g id="Group-4" transform="translate(30.000000, 92.000000)">
                <g id="working" transform="translate(0.000000, 53.000000)">
                    <g id="working-icon" transform="translate(39.000000, 16.000000)">
                        <g id="Group-5">
                            <path d="M24,0.5 C11.0213084,0.5 0.5,11.0213084 0.5,24 C0.5,36.9786916 11.0213084,47.5 24,47.5 C36.9786916,47.5 47.5,36.9786916 47.5,24 C47.5,11.0213084 36.9786916,0.5 24,0.5 Z M24,3.5 C35.3218374,3.5 44.5,12.6781626 44.5,24 C44.5,35.3218374 35.3218374,44.5 24,44.5 C12.6781626,44.5 3.5,35.3218374 3.5,24 C3.5,12.6781626 12.6781626,3.5 24,3.5 Z" id="Oval" fill-rule="nonzero"></path>
                            <circle id="Oval" cx="24" cy="8.875" r="1.375"></circle>
                            <circle id="Oval" cx="24" cy="24" r="2.0625"></circle>
                            <circle id="Oval-Copy-3" cx="24" cy="40.5" r="1.375"></circle>
                            <circle id="Oval-Copy" cx="39.8125" cy="24" r="1.375"></circle>
                            <circle id="Oval-Copy-2" cx="8.1875" cy="24" r="1.375"></circle>
                            <circle id="Oval-Copy-7" transform="translate(31.423703, 10.715373) rotate(28.000000) translate(-31.423703, -10.715373) " cx="31.4237027" cy="10.7153732" r="1.375"></circle>
                            <circle id="Oval-Copy-6" transform="translate(16.576665, 38.638591) rotate(28.000000) translate(-16.576665, -38.638591) " cx="16.5766645" cy="38.6385908" r="1.375"></circle>
                            <circle id="Oval-Copy-5" transform="translate(38.284554, 31.493475) rotate(28.000000) translate(-38.284554, -31.493475) " cx="38.2845541" cy="31.4934746" r="1.375"></circle>
                            <circle id="Oval-Copy-4" transform="translate(10.361336, 16.646436) rotate(28.000000) translate(-10.361336, -16.646436) " cx="10.3613365" cy="16.6464364" r="1.375"></circle>
                            <circle id="Oval-Copy-11" transform="translate(37.694210, 16.770732) rotate(60.000000) translate(-37.694210, -16.770732) " cx="37.6942103" cy="16.770732" r="1.375"></circle>
                            <circle id="Oval-Copy-10" transform="translate(10.306157, 32.583232) rotate(60.000000) translate(-10.306157, -32.583232) " cx="10.3061569" cy="32.583232" r="1.375"></circle>
                            <circle id="Oval-Copy-9" transform="translate(32.501826, 38.027259) rotate(60.000000) translate(-32.501826, -38.027259) " cx="32.5018261" cy="38.0272587" r="1.375"></circle>
                            <circle id="Oval-Copy-8" transform="translate(16.689326, 10.639205) rotate(60.000000) translate(-16.689326, -10.639205) " cx="16.6893261" cy="10.6392053" r="1.375"></circle>
                            <path d="M24,12.1875 C24.7796961,12.1875 25.4204487,12.7823881 25.4931334,13.54304 L25.5,13.6875 L25.5,24 C25.5,24.8284271 24.8284271,25.5 24,25.5 C23.2203039,25.5 22.5795513,24.9051119 22.5068666,24.14446 L22.5,24 L22.5,13.6875 C22.5,12.8590729 23.1715729,12.1875 24,12.1875 Z" id="Line" fill-rule="nonzero"></path>
                            <path d="M24,22.5 C24.8284271,22.5 25.5,23.1715729 25.5,24 C25.5,24.7796961 24.9051119,25.4204487 24.14446,25.4931334 L24,25.5 L16.4375,25.5 C15.6090729,25.5 14.9375,24.8284271 14.9375,24 C14.9375,23.2203039 15.5323881,22.5795513 16.29304,22.5068666 L16.4375,22.5 L24,22.5 Z" id="Line-Copy" fill-rule="nonzero"></path>
                        </g>
                    </g>
                </g>
            </g>
        </g>
    </g>
</svg>